OpenSim_Sub04_CSStiffKnee_RCS.mot
version=1
nRows=81
nColumns=11
inDegrees=no
endheader
time	Top_Thigh	Med_Thigh	Bot_Thigh	Top_Shank	2nd_Top_Shank	2nd_Bot_Shank	Bot_Shank	BNOx	BNOy	BNOZ
37.06000000	1380.31862908	1328.79807741	1238.18435160	1078.61451827	1214.70509672	1117.49838074	1040.81560639	6.81455352	-69.62736454	-128.51939968
37.07000000	1380.64538524	1328.78336650	1239.25441335	1078.75086690	1214.16750676	1117.13779334	1040.94691346	7.37035282	-69.57325509	-132.00437423
37.08000000	1381.18497005	1329.15887633	1240.29174775	1079.14934079	1213.98892495	1116.97485243	1041.01096810	8.12182060	-69.66657952	-141.96571080
37.09000000	1381.93852031	1329.95392708	1241.13172620	1079.81818381	1214.19736829	1117.02911148	1040.99924139	9.01417059	-69.92867415	-158.55905176
37.10000000	1382.88525181	1331.08482151	1241.81027052	1080.70809515	1214.71973302	1117.26150148	1040.92510477	10.02179702	-70.32180995	-178.77964616
37.11000000	1384.00225696	1332.45691488	1242.38272890	1081.76419990	1215.47312027	1117.62727492	1040.80405107	11.12192067	-70.80253655	-199.31661060
37.12000000	1385.26662816	1333.97556247	1242.90444951	1082.93162316	1216.37463120	1118.08168431	1040.65157312	12.29176237	-71.32740357	-216.85906173
37.13000000	1386.65545781	1335.54611955	1243.43078055	1084.15549004	1217.34136696	1118.57998214	1040.48316372	13.50854289	-71.85296061	-228.09611614
37.14000000	1388.14583833	1337.07394139	1244.01707019	1085.38092563	1218.29042868	1119.07742092	1040.31431571	14.74948305	-72.33575730	-229.71689048
37.15000000	1389.71486210	1338.46438327	1244.71866663	1086.55305503	1219.13891751	1119.52925314	1040.16052191	15.99180365	-72.73234325	-218.41050135
37.16000000	1391.33962154	1339.62280046	1245.59091805	1087.61700335	1219.80393460	1119.89073131	1040.03727515	17.21272547	-72.99926807	-190.86606538
37.17000000	1392.99506480	1340.46009197	1246.68268929	1088.52095745	1220.20833183	1120.11994930	1039.95908981	18.38971817	-73.09634772	-144.14853347
37.18000000	1394.62405569	1340.97010753	1247.94583533	1089.25891728	1220.36100924	1120.21751645	1039.92584028	19.50397495	-73.03227222	-80.94645097
37.19000000	1396.14475945	1341.21055251	1249.25753270	1089.86014979	1220.33710689	1120.21677058	1039.92613096	20.53955539	-72.85335492	-8.27741738
37.20000000	1397.47470598	1341.24077485	1250.49303696	1090.35482910	1220.21346878	1120.15189141	1039.94827639	21.48059282	-72.60687699	66.72960953
37.21000000	1398.53142517	1341.12012251	1251.52760368	1090.77312935	1220.06693889	1120.05705863	1039.98059109	22.31122055	-72.34011961	136.94567195
37.22000000	1399.23389513	1340.90741279	1252.23837142	1091.14495516	1219.97345175	1119.96606082	1040.01152357	23.01587109	-72.09980453	195.33566731
37.23000000	1399.55739330	1340.64083465	1252.57568097	1091.48973311	1219.97358676	1119.89748059	1040.03473106	23.59060738	-71.91090689	238.51311527
37.24000000	1399.55033189	1340.33178003	1252.58496532	1091.81327849	1220.06199573	1119.85014748	1040.05063709	24.04660079	-71.77015216	267.83122474
37.25000000	1399.26601085	1339.98985000	1252.31801269	1092.12049693	1220.23026106	1119.82157093	1040.06011741	24.39603237	-71.67237785	284.95996605
37.26000000	1398.75773013	1339.62464563	1251.82661125	1092.41629404	1220.46996514	1119.80926035	1040.06404776	24.65108318	-71.61242147	291.56930956
37.27000000	1398.07878969	1339.24576798	1251.16254920	1092.70557545	1220.77269038	1119.81072517	1040.06330388	24.82393430	-71.58512053	289.32922559
37.28000000	1397.28248946	1338.86281811	1250.37761473	1092.99324679	1221.13001916	1119.82347481	1040.05876150	24.92676678	-71.58531252	279.90968447
37.29000000	1396.42212940	1338.48539709	1249.52359602	1093.28421366	1221.53353389	1119.84501869	1040.05129638	24.97176170	-71.60783496	264.98065656
37.30000000	1395.55100945	1338.12310599	1248.65228128	1093.58338170	1221.97481697	1119.87286623	1040.04178425	24.97110011	-71.64752535	246.21211218
37.31000000	1394.72242957	1337.78554587	1247.81545869	1093.89565653	1222.44545078	1119.90452686	1040.03110086	24.93696308	-71.69922119	225.27402167
37.32000000	1393.98968969	1337.48231780	1247.06491644	1094.22594376	1222.93701774	1119.93750999	1040.02012194	24.88153168	-71.75776000	203.83635538
37.33000000	1393.40608977	1337.22302284	1246.45244273	1094.57914903	1223.44110023	1119.96932506	1040.00972323	24.81698696	-71.81797928	183.56908363
37.34000000	1393.02492976	1337.01726206	1246.02982573	1094.96017794	1223.94928065	1119.99748147	1040.00078048	24.75551000	-71.87471654	166.14217676
37.35000000	1392.88798261	1336.87287503	1245.83825345	1095.37099607	1224.45295209	1120.01985567	1039.99402887	24.70811622	-71.92355420	152.95599291
37.36000000	1392.97467437	1336.78817385	1245.86157968	1095.79766685	1224.94248365	1120.03630915	1039.98944329	24.67951643	-71.96410380	143.95261732
37.37000000	1393.24344846	1336.75826416	1246.06436266	1096.22090191	1225.40789986	1120.04737148	1039.98674277	24.67229962	-71.99733286	138.58335966
37.38000000	1393.65273251	1336.77824920	1246.41114608	1096.62140887	1225.83922495	1120.05357274	1039.98564616	24.68905319	-72.02420991	136.29915976
37.39000000	1394.16095415	1336.84323221	1246.86647364	1096.97989531	1226.22648317	1120.05544298	1039.98587229	24.73236453	-72.04570349	136.55095744
37.40000000	1394.72654100	1336.94831641	1247.39488902	1097.27706886	1226.55969877	1120.05351228	1039.98714001	24.80482104	-72.06278215	138.78969255
37.41000000	1395.30792069	1337.08860504	1247.96093591	1097.49363710	1226.82889600	1120.04831071	1039.98916815	24.90901012	-72.07641443	142.46630491
37.42000000	1395.86352085	1337.25920133	1248.52915802	1097.61030766	1227.02409909	1120.04036835	1039.99167554	25.04751917	-72.08756885	147.03173434
37.43000000	1396.35176910	1337.45520852	1249.06409902	1097.60778813	1227.13533231	1120.03021526	1039.99438104	25.22293558	-72.09721397	151.93692067
37.44000000	1396.73109306	1337.67172985	1249.53030262	1097.46678611	1227.15261989	1120.01838150	1039.99700347	25.43784675	-72.10631831	156.63280375
37.45000000	1396.95992036	1337.90386854	1249.89231250	1097.16800922	1227.06598608	1120.00539716	1039.99926168	25.69484009	-72.11585043	160.57032338
37.46000000	1397.00038405	1338.14682224	1250.11985186	1096.69521317	1226.86763941	1119.99182584	1040.00088910	25.99642635	-72.12660369	163.22871317
37.47000000	1396.87006138	1338.39720122	1250.26014451	1096.07776247	1226.58247164	1119.97873288	1040.00183750	26.34396980	-72.13675057	164.51056514
37.48000000	1396.62921063	1338.65270322	1250.42007444	1095.38013140	1226.26053416	1119.96756986	1040.00222676	26.73795210	-72.14244597	164.64437347
37.49000000	1396.33918800	1338.91105392	1250.70806026	1094.66769737	1225.95252556	1119.95979831	1040.00218106	27.17883222	-72.13979287	163.86701568
37.50000000	1396.06134967	1339.16997902	1251.23252062	1094.00583778	1225.70914443	1119.95687976	1040.00182459	27.66706911	-72.12489426	162.41536930
37.51000000	1395.85705183	1339.42720422	1252.10187415	1093.45993005	1225.58108936	1119.96027573	1040.00128155	28.20312173	-72.09385315	160.52631185
37.52000000	1395.78765069	1339.68045522	1253.42453948	1093.09535159	1225.61905892	1119.97144773	1040.00067611	28.78744905	-72.04277252	158.43672086
37.53000000	1395.91450242	1339.92745772	1255.30893525	1092.97747981	1225.87375170	1119.99185731	1040.00013247	29.42051003	-71.96775537	156.38347384
37.54000000	1396.28922879	1340.16410966	1257.81986945	1093.15899870	1226.38529238	1120.02230389	1039.99976523	30.10261773	-71.86541478	154.58484733
37.55000000	1396.86295701	1340.36744008	1260.57193065	1093.56155027	1227.08464461	1120.05675194	1039.99958989	30.83257909	-71.73762991	153.06708841
37.56000000	1397.52752790	1340.50334633	1262.91410213	1094.02946878	1227.83837291	1120.08513363	1039.99956353	31.60831253	-71.58938659	151.74315707
37.57000000	1398.17401603	1340.53758193	1264.19193423	1094.40608932	1228.51220944	1120.09732900	1039.99964245	32.42772494	-71.42571080	150.52454909
37.58000000	1398.69349595	1340.43590037	1263.75097733	1094.53474697	1228.97188637	1120.08321812	1039.99978297	33.28872326	-71.25162855	149.32276025
37.59000000	1398.97704222	1340.16405514	1260.93678177	1094.25877680	1229.08313587	1120.03268104	1039.99994140	34.18921440	-71.07216581	148.04928633
37.60000000	1398.92204958	1339.69095991	1255.15511706	1093.43225786	1228.72063412	1119.93658013	1040.00007580	35.12796967	-70.89136906	146.61996131
37.61000000	1398.52048170	1339.03281390	1246.71280955	1092.07003072	1227.89288611	1119.80047633	1040.00017046	36.11669404	-70.69862819	145.01553133
37.62000000	1397.83710150	1338.24221685	1236.61032094	1090.31069054	1226.71141855	1119.64124553	1040.00022984	37.17704891	-70.47205046	143.26671209
37.63000000	1396.93854459	1337.37270484	1225.86595562	1088.29601584	1225.29040823	1119.47605467	1040.00025893	38.33095174	-70.18945288	141.40550467
37.64000000	1395.89144658	1336.47781395	1215.49801800	1086.16778517	1223.74403192	1119.32207070	1040.00026273	39.60032005	-69.82865247	139.46391014
37.65000000	1394.76244306	1335.61108026	1206.52481248	1084.06777705	1222.18646642	1119.19646059	1040.00024622	41.00707129	-69.36746626	137.47392958
37.66000000	1393.61816963	1334.82603986	1199.96464346	1082.13777002	1220.73188849	1119.11639127	1040.00021439	42.57312298	-68.78371125	135.46756407
37.67000000	1392.52526191	1334.17622883	1196.83581535	1080.51954262	1219.49447494	1119.09902971	1040.00017222	44.32039259	-68.05520447	133.47681468
37.68000000	1391.55035548	1333.71518325	1198.15663255	1079.35487338	1218.58840253	1119.16154285	1040.00012471	46.27079761	-67.15976294	131.53368251
37.69000000	1390.76008595	1333.49643919	1204.94539945	1078.78554084	1218.12784804	1119.32109764	1040.00007684	48.44625553	-66.07520367	129.67016862
37.70000000	1390.22108892	1333.57353275	1218.22042047	1078.95332354	1218.22698828	1119.59486104	1040.00003361	50.86868383	-64.77934368	127.91827409
37.71000000	1390	1334	1239	1080	1219	1120	1040	53.56000000	-63.25000000	126.31000000
37.72000000	1390.10802226	1334.77767943	1266.88636995	1081.97994865	1220.48295434	1120.52758092	1039.99997969	56.51837540	-61.48538878	124.85167537
37.73000000	1390.33462873	1335.70161911	1295.81747220	1084.59794739	1222.39949980	1121.06426807	1039.99997111	59.64699687	-59.56532279	123.44694095
37.74000000	1390.41385990	1336.51516952	1318.31517617	1087.47137404	1224.39517922	1121.47062513	1039.99997140	62.82530513	-57.59001391	121.97376545
37.75000000	1390.07975628	1336.96168113	1326.90135124	1090.21760639	1226.11553543	1121.60721584	1039.99997768	65.93274086	-55.65967406	120.31011757
37.76000000	1389.06635837	1336.78450444	1314.09786682	1092.45402223	1227.20611127	1121.33460389	1039.99998708	68.84874480	-53.87451512	118.33396599
37.77000000	1387.10770667	1335.72698990	1272.42659229	1093.79799936	1227.31244959	1120.51335299	1039.99999672	71.45275765	-52.33474899	115.92327943
37.78000000	1383.96444616	1333.55644265	1195.17704051	1093.89240221	1226.10809940	1119.01853471	1040.00000386	73.62750477	-51.13680458	112.98419272
37.79000000	1379.79530362	1330.39860025	1087.12494471	1092.76145078	1223.68566527	1116.94230093	1040.00000767	75.30485980	-50.32050575	109.84428965
37.80000000	1375.06545000	1326.65512230	961.88815336	1090.72293332	1220.46034154	1114.54391247	1040.00000880	76.45453079	-49.88210171	107.15558624
37.81000000	1370.24793908	1322.73476604	833.31196484	1088.10218966	1216.85562068	1112.08692874	1040.00000791	77.04719902	-49.81672079	105.57844403
37.82000000	1365.81582459	1319.04628873	715.24167753	1085.22455965	1213.29499515	1109.83490913	1040.00000570	77.05354578	-50.11949131	105.77322455
37.83000000	1362.24216031	1315.99844763	621.52258979	1082.41538315	1210.20195744	1108.05141308	1040.00000283	76.44425234	-50.78554161	108.40028936
37.84000000	1360.00000000	1314.00000000	566.00000000	1080.00000000	1208.00000000	1107.00000000	1040	75.19000000	-51.81000000	114.12000000
37.85000000	1359.43807227	1313.35278058	558.66453951	1078.23911183	1207.00452800	1106.87071793	1039.99999776	73.28127006	-53.17634315	123.21334674
37.86000000	1360.40780519	1313.93093411	594.08817156	1077.13486739	1207.09859741	1107.55956948	1039.99999618	70.78774388	-54.82144109	134.44383482
